<?xml version="1.0" encoding="utf-8"?>
<!-- Svg Vector Icons : http://www.onlinewebfonts.com/icon -->
<!DOCTYPE svg PUBLIC "-//W3C//DTD SVG 1.1//EN" "http://www.w3.org/Graphics/SVG/1.1/DTD/svg11.dtd">
<svg version="1.1" xmlns="http://www.w3.org/2000/svg" xmlns:xlink="http://www.w3.org/1999/xlink" x="0px" y="0px" viewBox="0 0 1000 1000" enable-background="new 0 0 1000 1000" xml:space="preserve">
<metadata> Svg Vector Icons : http://www.onlinewebfonts.com/icon </metadata>
<g><g transform="translate(0.000000,512.000000) scale(0.100000,-0.100000)"><path d="M1733.3,4793.1v-225.9l-212.5-51.7c-137.9-34.5-283.4-86.2-415.5-149.4c-176.2-86.2-224-120.6-377.2-273.8c-277.7-277.6-386.8-534.2-405.9-953.6c-17.2-367.6,44-599.3,235.5-890.4c195.3-294.9,517-551.5,949.8-754.4l225.9-105.3V636v-752.5l-42.1,23c-78.5,42.1-235.5,218.3-296.8,335.1c-65.1,120.6-120.6,315.9-120.6,425.1V728H687.8H100l13.4-164.7c67-823.4,620.4-1493.5,1447.6-1750.1l162.8-51.7l5.7-241.3l5.8-243.2h610.8h610.8l5.7,222.1l5.7,224l176.2,36.4c231.7,45.9,509.3,145.5,693.2,248.9c180,101.5,442.3,358.1,543.8,532.3c149.4,258.5,241.3,693.2,214.5,1012.9c-67,781.3-518.9,1302.1-1417,1639.1l-210.6,78.5l-5.7,674c-1.9,419.4,1.9,674,13.4,674c11.5,0,68.9-47.9,132.1-105.3c128.3-118.7,220.2-275.7,252.8-434.7l21.1-111.1h404h404l-11.5,187.6c-40.2,675.9-404,1141.2-1047.4,1344.2l-162.8,51.7l-5.7,231.7l-5.7,233.6h-610.8h-612.7V4793.1z M1733.3,3169.3c0-302.5-7.7-507.4-17.2-507.4c-11.5,0-72.8,36.4-139.8,82.3c-139.8,95.7-225.9,220.2-239.4,342.8c-13.4,116.8,51.7,277.7,160.8,400.2c70.8,76.6,197.2,180,231.7,187.6C1731.4,3676.8,1733.3,3448.9,1733.3,3169.3z M3060.3,921.3c109.1-74.7,239.4-218.3,277.6-304.5c42.1-97.7,40.2-346.6-5.7-480.6c-38.3-118.7-153.2-254.7-262.3-310.2c-38.3-19.2-80.4-36.4-91.9-36.4c-13.4,0-19.2,195.3-19.2,593.6c0,327.4,5.7,593.6,11.5,593.6C2976,976.9,3016.3,952,3060.3,921.3z"/><path d="M4439,3165.5c-42.1-7.7-44-17.2-44-199.1v-189.6h-189.6c-155.1,0-191.5-5.7-201.1-30.6c-5.7-17.2-11.5-191.5-11.5-386.8v-358.1l67-46c105.3-70.9,394.5-384.9,465.3-505.5c145.5-243.2,271.9-645.3,271.9-863.6v-68.9h411.7h411.7V9.9v-507.4h-515.1h-513.2l-72.8-116.8c-91.9-149.4-262.3-331.3-409.8-438.5l-116.8-86.2v-1608.4v-1608.4l46-95.7c55.5-116.8,160.8-224,277.7-281.5l88.1-44h2546.7h2546.7l95.7,51.7c114.9,59.4,199.1,147.5,260.4,264.2l46,86.2v3571.1v3571.1l-51.7,95.7c-59.4,114.9-147.4,199.1-264.2,260.4l-86.2,46l-2508.4,1.9C5610.8,3173.2,4461.9,3169.3,4439,3165.5z M9296.8,1953.4v-612.7H6951.2H4605.5v612.7v612.7h2345.6h2345.6V1953.4z M6845.9,9.9v-507.4h-507.4H5831V9.9v507.4h507.4h507.4V9.9z M8071.3,9.9v-507.4h-507.4h-507.4V9.9v507.4h507.4h507.4V9.9z M9296.8,9.9v-507.4h-507.4H8282V9.9v507.4h507.4h507.4V9.9z M5620.4-1215.6V-1723H5113h-507.4v507.4v507.4H5113h507.4V-1215.6z M6845.9-1215.6V-1723h-507.4H5831v507.4v507.4h507.4h507.4V-1215.6z M8071.3-1215.6V-1723h-507.4h-507.4v507.4v507.4h507.4h507.4V-1215.6z M9296.8-1215.6V-1723h-507.4H8282v507.4v507.4h507.4h507.4V-1215.6z M5620.4-2441.1v-507.4H5113h-507.4v507.4v507.4H5113h507.4V-2441.1z M6845.9-2441.1v-507.4h-507.4H5831v507.4v507.4h507.4h507.4V-2441.1z M8071.3-2441.1v-507.4h-507.4h-507.4v507.4v507.4h507.4h507.4V-2441.1z M9296.8-2441.1v-507.4h-507.4H8282v507.4v507.4h507.4h507.4V-2441.1z M5620.4-3666.5V-4174H5113h-507.4v507.4v507.4H5113h507.4V-3666.5z M6845.9-3666.5V-4174h-507.4H5831v507.4v507.4h507.4h507.4V-3666.5z M8071.3-3666.5V-4174h-507.4h-507.4v507.4v507.4h507.4h507.4V-3666.5z M9296.8-3666.5V-4174h-507.4H8282v507.4v507.4h507.4h507.4V-3666.5z"/></g></g>
</svg>